<?xml version="1.0" encoding="UTF-8"?>
<svg id="Ebene_1" xmlns="http://www.w3.org/2000/svg" version="1.1" viewBox="0 0 1335.21 348.02">
  <!-- Generator: Adobe Illustrator 30.0.0, SVG Export Plug-In . SVG Version: 2.1.1 Build 123)  -->
  <path d="M137.95,69.77l11.03-52c.53-2.45,2.98-4.55,5.52-4.55h85.96c2.54,0,4.11,2.01,3.59,4.55l-4.55,21.45-1.84,8.58-1.14,5.25-.09.53-3.41,16.19c-.53,2.54-2.98,4.55-5.52,4.55h-22.58c-2.54,0-4.11-2.01-3.59-4.55l2.63-12.34h-21.27l-2.63,12.34c-.53,2.54-2.98,4.55-5.52,4.55h-33c-2.54,0-4.11-2.01-3.59-4.55ZM189.16,34.84h29.94c.53,0,1.05-.44,1.05-1.05,0-.53-.53-1.05-1.05-1.05h-29.94c-.52,0-1.05.53-1.05,1.05,0,.61.53,1.05,1.05,1.05Z"/>
  <path d="M245.54,69.77l11.03-52c.53-2.45,2.98-4.55,5.52-4.55h79.4c3.68,0,5.25,6.83,4.81,15.23-1.4,8.23-6.39,14.36-10.24,14.36h-39.04c-.61,0-1.05.53-1.05,1.05s.44,1.05,1.05,1.05l43.07-.09c3.76,0,5.34,7,3.94,15.06-1.58,8.14-6.13,14.44-10.33,14.44h-84.56c-2.54,0-4.11-2.01-3.59-4.55ZM292.46,59.88c0,.61.53,1.05,1.05,1.05h29.94c.53,0,1.05-.44,1.05-1.05,0-.52-.52-1.05-1.05-1.05h-29.94c-.53,0-1.05.53-1.05,1.05ZM300.08,29.94h29.94c.53,0,1.05-.44,1.05-1.05,0-.53-.52-1.05-1.05-1.05h-29.94c-.53,0-1.05.53-1.05,1.05,0,.61.52,1.05,1.05,1.05Z"/>
  <path d="M438.3,49.11l-4.38,20.66c-.52,2.54-2.98,4.55-5.6,4.55h-71.26c-7.7,0-11.12-14.01-7.53-31.08,3.59-16.9,12.78-29.94,20.48-29.94l71.34-.09c2.54,0,4.11,2.1,3.59,4.55l-4.29,20.13c-.53,2.54-2.98,4.55-5.52,4.55h-39.83c-.52,0-1.05.44-1.05,1.05s.53,1.05,1.05,1.05h39.39c2.54,0,4.11,2.1,3.59,4.55Z"/>
  <path d="M457.04,17.77c.53-2.45,2.98-4.55,5.52-4.55h75.9c7.79,0,11.38,13.22,7.79,30.2-3.59,16.98-12.96,30.9-20.83,30.9h-75.81c-2.54,0-4.11-2.01-3.59-4.55l11.03-52ZM498.36,25.04l-8.23,39.04c-.17.52.18,1.05.79,1.05.53,0,1.14-.53,1.31-1.05l8.23-39.04c.17-.52-.18-1.05-.79-1.05s-1.14.53-1.31,1.05Z"/>
  <path d="M549.05,69.77l11.03-52c.53-2.45,2.98-4.55,5.52-4.55h77.3c2.54,0,4.11,2.01,3.59,4.55l-2.19,10.42c-.53,2.54-2.98,4.55-5.52,4.55h-36.5c-.53,0-1.05.44-1.05,1.05s.53,1.05,1.05,1.05h36.07c2.54,0,4.11,2.01,3.59,4.55l-1.58,7.09c-.53,2.54-2.98,4.55-5.52,4.55h-36.42c-.52,0-1.05.44-1.05,1.05s.53,1.05,1.05,1.05h36.07c2.54,0,4.03,2.01,3.5,4.55l-2.54,12.08c-.52,2.54-2.98,4.55-5.51,4.55h-77.3c-2.54,0-4.11-2.01-3.59-4.55Z"/>
  <path d="M664.16,13.31h77.21c2.54,0,4.11,2.01,3.59,4.55l-2.19,10.33c-.52,2.54-2.98,4.55-5.51,4.55h-36.94c-.53,0-1.05.44-1.05,1.05s.61,1.05,1.14,1.05h36.42c2.54,0,4.11,2.01,3.59,4.55l-1.58,7.09c-.53,2.54-2.98,4.55-5.52,4.55h-36.85l-4.03,18.73c-.53,2.54-2.98,4.55-5.51,4.55h-35.8c-2.54,0-4.11-2.01-3.59-4.55l11.12-51.91c.53-2.45,2.98-4.55,5.51-4.55Z"/>
  <path d="M796.7,53.14h25.12c.52,0,1.05-.44,1.05-1.05s-.53-1.05-1.05-1.05h-24.69c-2.89,0-4.29-2.45-3.85-4.81l1.31-6.48c.61-2.89,2.8-4.9,5.69-4.9h39.48c2.1,0,3.5,1.84,3.06,3.85l-1.58,7.62-2.28,11.03-2.63,12.34c-.61,2.63-3.24,4.64-5.78,4.64h-75.28c-7.7,0-11.12-14.09-7.53-31.16,3.59-16.9,12.78-29.94,20.48-29.94h75.37c2.54,0,4.29,2.01,3.68,4.64l-2.28,10.77c-.52,2.28-2.63,4.11-4.81,4.11h-39.92c-4.11,0-6.74,2.89-7.62,7l-1.4,6.48c-.88,4.11,1.31,6.92,5.43,6.92Z"/>
  <path d="M864.98,13.22h35.8c2.54,0,4.11,2.1,3.59,4.55l-3.41,16.02c-.09.52.26,1.05.88,1.05s1.14-.53,1.23-1.05l3.41-16.02c.53-2.45,2.98-4.55,5.52-4.55h35.8c2.54,0,4.11,2.1,3.59,4.55l-11.03,52c-.53,2.54-2.98,4.55-5.51,4.55h-35.8c-2.54,0-4.11-2.1-3.59-4.64l3.85-17.95c.09-.53-.26-1.05-.88-1.05s-1.14.52-1.23,1.05l-3.85,18.03c-.53,2.54-2.98,4.55-5.51,4.55h-35.89c-2.54,0-4.11-2.1-3.59-4.64l11.12-51.91c.53-2.45,2.98-4.55,5.52-4.55Z"/>
  <path d="M952.44,69.68l.26-1.31,10.77-50.6c.52-2.45,2.98-4.55,5.51-4.55h35.8c2.54,0,4.11,2.1,3.59,4.55l-11.03,52c-.52,2.54-2.98,4.55-5.51,4.55h-35.8c-2.54,0-4.11-2.1-3.59-4.64Z"/>
  <path d="M1039.54,64.52c.61,0,1.14-.44,1.23-.96l.44-2.19,9.37-43.59c.53-2.45,2.98-4.55,5.51-4.55h35.72c2.54,0,4.11,2.1,3.59,4.55l-11.03,52c-.53,2.54-2.98,4.55-5.51,4.55l-65.83-.35c-2.54,0-4.2-2.01-3.59-4.55l3.94-18.03c.53-2.45,2.98-4.55,5.51-4.55l18.65.09c2.54,0,4.12,2.1,3.59,4.55l-2.54,12.08c-.09.53.44.96.96.96Z"/>
  <path d="M1187.66,42.72h-24.95c-.53,0-.96.44-.96,1.05s.44,1.05.96,1.05h24.42c2.54,0,4.11,2.1,3.59,4.55l-4.38,20.4c-.44,2.54-2.89,4.55-5.43,4.55h-33.88c-2.54,0-4.11-2.01-3.59-4.64l3.15-15.14c.09-.53-.26-.96-.88-.96s-1.05.44-1.14.96l-3.15,15.23c-.53,2.54-2.98,4.55-5.51,4.55h-35.89c-2.54,0-4.11-2.01-3.59-4.64l11.03-51.91c.52-2.45,2.98-4.55,5.51-4.55h35.54c2.54,0,4.11,2.1,3.59,4.55l-3.41,15.93c-.09.53.44.96.96.96.61,0,1.05-.44,1.14-.96l3.41-15.93c.52-2.45,2.98-4.55,5.51-4.55h34.14c2.54,0,4.11,2.1,3.59,4.55l-4.29,20.4c-.61,2.54-2.98,4.55-5.52,4.55Z"/>
  <path d="M22.46,198.32c-2.54,0-4.11-2.01-3.59-4.64l11.12-51.91c.53-2.45,2.98-4.55,5.52-4.55h35.72c2.54,0,4.11,2.1,3.59,4.55l-7.44,35.19h20.4c2.54,0,4.11,2.1,3.59,4.55l-2.89,12.25c-.52,2.54-2.89,4.55-5.43,4.55H22.46Z"/>
  <path d="M126.28,198.32h-29.41c-2.54,0-4.11-2.01-3.59-4.64l11.12-51.91c.53-2.45,2.98-4.55,5.52-4.55h52.61c2.54,0,4.11,2.1,3.59,4.55l-6.39,30.2c-.09.53.17,1.05.79,1.05s1.23-.52,1.31-1.05l6.39-30.2c.53-2.45,2.98-4.55,5.52-4.55h52.79c2.54,0,4.11,2.1,3.59,4.55l-11.12,52c-.53,2.54-2.98,4.55-5.52,4.55h-29.33c-2.54,0-4.11-2.01-3.59-4.64l8.32-38.6c.09-.61-.09-1.05-.7-1.05s-.96.44-1.05,1.05l-8.32,38.69c-.53,2.54-2.98,4.55-5.52,4.55h-35.89c-2.54,0-4.11-2.01-3.59-4.64l8.32-38.6c.09-.61-.26-1.05-.88-1.05s-1.14.44-1.23,1.05l-8.23,38.69c-.53,2.54-2.98,4.55-5.52,4.55Z"/>
  <path d="M327.72,198.32h-52.96c-2.54,0-4.11-2.01-3.59-4.64l8.23-38.6c.09-.53-.18-1.05-.79-1.05s-.96.53-1.05,1.05l-8.23,38.69c-.52,2.54-2.98,4.55-5.51,4.55h-29.06c-2.54,0-4.11-2.01-3.59-4.64l11.03-51.91c.53-2.45,2.98-4.55,5.52-4.55h53.4c2.54,0,4.11,2.1,3.59,4.55l-8.32,38.78c-.09.52.09.96.7.96s.96-.44,1.05-.96l8.23-38.78c.53-2.45,2.98-4.55,5.52-4.55h29.06c2.54,0,4.11,2.1,3.59,4.55l-11.29,52c-.53,2.54-2.98,4.55-5.52,4.55Z"/>
  <path d="M347.33,167.25c3.59-16.9,12.78-30.03,20.48-30.03h77.12c7.7,0,11.38,13.13,7.79,30.03-3.68,17.07-13.13,31.08-20.83,31.08h-77.04c-7.7,0-11.12-14.01-7.53-31.08ZM383.31,168.73h46.31c.52,0,1.05-.53,1.05-1.05,0-.61-.53-1.05-1.05-1.05h-46.31c-.53,0-1.05.44-1.05,1.05s.52,1.05,1.05,1.05Z"/>
  <path d="M494.75,198.32h-35.72c-2.54,0-4.11-2.01-3.59-4.55l11.03-52c.53-2.45,2.98-4.55,5.52-4.55h80.36c5.51,0,7.88,10.24,5.78,22.15-2.36,12.17-7.97,15.67-13.74,15.67h-40.01l-4.11,18.73c-.52,2.54-2.98,4.55-5.51,4.55ZM508.84,158.84h30.38c.52,0,.96-.44.96-1.05s-.44-1.05-.96-1.05h-30.38c-.53,0-1.05.44-1.05,1.05s.52,1.05,1.05,1.05Z"/>
  <path d="M611.61,214.17l3.41-15.84h-45.87c-7.7,0-11.12-14.01-7.53-31.08,3.59-16.9,12.78-30.03,20.48-30.03h77.04c7.7,0,11.29,13.13,7.7,30.03-3.68,17.07-13.04,31.08-20.75,31.08h-4.81l-6.74,15.84c-.44.96-1.58,1.75-2.28,1.75h-19.43c-.96,0-1.4-.79-1.23-1.75ZM597.17,168.82h46.31c.53,0,1.05-.53,1.05-1.05,0-.61-.53-1.05-1.05-1.05h-46.31c-.52,0-1.05.44-1.05,1.05s.53,1.05,1.05,1.05Z"/>
  <path d="M680.69,141.77c.52-2.45,2.98-4.55,5.51-4.55h79.4c3.68,0,5.25,6.83,4.81,15.23-1.4,8.23-6.39,14.36-10.24,14.36h-22.58c-.53,0-1.05.53-1.05,1.05,0,.61.53,1.05,1.05,1.05l24.6-.17c2.54,0,4.11,2.1,3.59,4.55l-4.38,20.48c-.53,2.54-2.98,4.55-5.51,4.55h-34.58c-2.54,0-4.11-2.01-3.59-4.64l3.33-15.67c.09-.52-.26-1.05-.88-1.05s-1.14.53-1.22,1.05l-3.33,15.76c-.53,2.54-2.98,4.55-5.51,4.55h-36.85c-2.54,0-4.11-2.01-3.59-4.64l11.03-51.91ZM756.15,152.89c0-.61-.53-1.05-1.05-1.05h-29.5c-.53,0-1.05.44-1.05,1.05s.52,1.05,1.05,1.05h29.41c.53,0,1.14-.44,1.14-1.05Z"/>
  <path d="M779.35,178.1h39.83c.53,0,1.05-.44,1.05-1.05s-.53-1.05-1.05-1.05l-34.4-.09c-5.08,0-7.88-8.49-5.43-19.17,2.63-10.59,8.4-19.52,13.31-19.52h80.27c2.54,0,4.11,2.1,3.59,4.55l-2.01,9.19c-.61,2.54-2.98,4.55-5.51,4.55h-39.74c-.53,0-1.05.44-1.05,1.05s.53,1.05,1.05,1.05h34.4c5.17,0,7.35,9.45,5.43,20.57-2.28,11.29-8.93,20.13-14.27,20.13h-79.75c-2.54,0-4.11-2.01-3.59-4.64l2.36-11.03c.53-2.45,2.98-4.55,5.52-4.55Z"/>
  <path d="M881.16,168.47c-2.54,0-4.11-2.01-3.5-4.64l4.64-21.97c.53-2.45,2.98-4.55,5.52-4.55h85.96c2.54,0,4.11,2.1,3.59,4.55l-4.64,21.97c-.61,2.54-3.06,4.64-5.6,4.64h-20.48l-5.34,25.3c-.53,2.54-2.98,4.55-5.51,4.55h-35.89c-2.54,0-4.11-2.01-3.59-4.64l5.34-25.21h-20.48Z"/>
  <path d="M1025.07,178.89l7.88-37.12c.53-2.45,2.98-4.55,5.51-4.55h28.28c6.83,0,9.72,13.13,6.57,30.03-3.33,17.07-11.64,31.08-18.47,31.08h-68.19c-6.74,0-9.8-14.01-6.65-31.08,3.24-16.9,11.38-30.03,18.12-30.03h29.24c2.54,0,4.11,2.1,3.59,4.55l-7.97,37.12c-.09.52.26,1.05.88,1.05s1.14-.53,1.23-1.05Z"/>
  <path d="M1079.61,198.32c-2.54,0-4.11-2.01-3.59-4.64l11.03-51.91c.52-2.45,2.98-4.55,5.6-4.55h35.45c2.54,0,4.11,2.1,3.59,4.55l-7.97,37.12c-.09.52.17,1.05.88,1.05.61,0,1.14-.53,1.23-1.05l7.97-37.29c.52-2.45,2.89-4.38,5.43-4.38h35.89c2.54,0,4.11,2.1,3.59,4.55l-11.12,52c-.44,2.54-2.89,4.55-5.43,4.55h-82.55Z"/>
  <path d="M1196.22,137.22h29.41c2.54,0,4.2,2.01,3.59,4.55l-8.23,38.69c-.18.61.17,1.05.79,1.05s1.14-.44,1.31-1.05l8.14-38.6c.61-2.63,2.98-4.64,5.51-4.64h35.89c2.54,0,4.2,2.01,3.59,4.55l-8.14,38.69c-.17.61,0,1.05.61,1.05s.96-.44,1.14-1.05l8.14-38.6c.61-2.63,2.98-4.64,5.51-4.64h29.33c2.54,0,4.2,2.01,3.59,4.55l-10.94,52c-.53,2.45-2.98,4.55-5.52,4.55h-52.79c-2.54,0-4.11-2.1-3.59-4.55l6.39-30.2c.17-.53-.18-1.05-.79-1.05s-1.14.52-1.31,1.05l-6.39,30.2c-.52,2.45-2.98,4.55-5.51,4.55h-52.61c-2.54,0-4.11-2.1-3.59-4.55l10.94-51.91c.61-2.63,2.98-4.64,5.51-4.64Z"/>
  <path d="M558.85,322.32h-34.49c-2.54,0-4.11-2.01-3.59-4.64l3.94-18.29c.44-2.45,2.98-4.55,5.43-4.55h24.77c.53,0,1.14-.44,1.14-1.05s-.61-1.05-1.14-1.05h-24.25c-2.54,0-4.11-2.01-3.59-4.64l4.73-22.32c.53-2.45,2.98-4.55,5.52-4.55h34.49c2.54,0,4.11,2.1,3.59,4.55l-3.33,15.76c-.09.53.26,1.05.88,1.05s1.14-.53,1.23-1.05l3.33-15.76c.53-2.45,2.98-4.55,5.52-4.55h35.02c2.54,0,4.11,2.1,3.59,4.55l-4.73,22.41c-.52,2.54-2.98,4.55-5.51,4.55h-24.69c-.61,0-1.14.44-1.14,1.05s.61,1.05,1.14,1.05h24.25c2.54,0,4.03,2.1,3.59,4.55l-3.94,18.38c-.52,2.54-2.98,4.55-5.51,4.55h-35.02c-2.54,0-4.11-2.01-3.59-4.64l1.4-6.39,1.93-9.28c.09-.53-.26-1.05-.88-1.05s-1.14.53-1.23,1.05l-3.33,15.67c-.53,2.54-2.98,4.64-5.52,4.64Z"/>
  <path d="M665.56,281.53l3.24-15.84c.53-2.45,2.98-4.46,5.51-4.46h30.38c2.54,0,4.11,2.01,3.59,4.46l-4.73,22.24c-.53,2.54-2.98,4.55-5.51,4.55h-13.04l-4.55,22.41-.61,2.89c-.53,2.54-2.98,4.55-5.52,4.55h-35.63c-2.54,0-4.11-2.01-3.59-4.64l5.34-25.04-14.18-.09c-2.54,0-4.11-2.01-3.59-4.64l4.64-22.15c.52-2.45,2.98-4.55,5.51-4.55h30.38c2.54,0,4.11,2.01,3.68,4.46l-3.41,15.84c-.09.53.17,1.05.79,1.05s1.23-.53,1.31-1.05Z"/>
  <path d="M802.56,299.91h-39.48c-.61,0-1.05.44-1.05,1.05s.44,1.05,1.05,1.05h39.04c2.54,0,4.11,2.1,3.59,4.55l-2.36,11.21c-.53,2.54-2.98,4.55-5.51,4.55h-84.91c-2.54,0-4.11-2.01-3.59-4.64l6.74-31.6c.53-2.45,2.98-4.55,5.52-4.55h39.48c.53,0,1.05-.44,1.05-1.05s-.53-.96-1.05-.96h-39.04c-2.54,0-4.11-2.01-3.59-4.64l1.93-9.1c.61-2.63,2.98-4.55,5.51-4.55h84.91c2.54,0,4.11,2.1,3.59,4.55l-6.22,29.5c-.61,2.63-3.06,4.64-5.6,4.64Z"/>
</svg>