<?xml version="1.0" encoding="UTF-8"?>
<svg id="Ebene_1" xmlns="http://www.w3.org/2000/svg" version="1.1" viewBox="0 0 337 291">
  <!-- Generator: Adobe Illustrator 30.0.0, SVG Export Plug-In . SVG Version: 2.1.1 Build 123)  -->
  <defs>
    <style>
      .st0, .st1 {
        fill: #1d1d1b;
      }

      .st2 {
        fill: #fff;
      }

      .st1 {
        stroke: #1d1d1b;
        stroke-miterlimit: 10;
      }
    </style>
  </defs>
  <g>
    <path class="st0" d="M206.6,101.28l.87.15c-.27-.06-.54-.11-.81-.15h-.06Z"/>
    <path class="st0" d="M142.4,98.66"/>
    <path class="st0" d="M174.57,101.63"/>
  </g>
  <path class="st0" d="M230.21,100.59s-2.36-10.93-20.69-14.28c-3.43-.63-24.25-4.97-41.92-4.74-17.68-.23-38.5,4.12-41.92,4.74-18.33,3.35-20.69,14.28-20.69,14.28-3.9,5.94-3.46,43.26-3.46,43.26l8.15.82c-.13-1.08.92-22.02,1.92-30.16.05-.44.12-.87.2-1.3.9-4.85,3.48-8.73,8.98-10.75.15-.06.32-.1.48-.14,2.81-.69,7.71-.26,14.92-.58l31.21.08h0s.23,0,.23,0h.23s0,0,0,0l31.21-.08c7.21.33,12.1-.1,14.92.58.16.04.32.08.48.14,5.5,2.01,8.08,5.9,8.98,10.75.08.42.14.86.2,1.3,1,8.14,2.05,29.09,1.92,30.16l8.15-.82s.44-37.32-3.46-43.26Z"/>
  <g>
    <ellipse class="st0" cx="168.47" cy="198.51" rx="116.37" ry="71.45"/>
    <path class="st0" d="M168.47,270.13c-31.11,0-60.37-7.44-82.37-20.95-22.03-13.53-34.16-31.52-34.16-50.66s12.13-37.13,34.16-50.66c22-13.51,51.26-20.95,82.37-20.95s60.37,7.44,82.37,20.95c22.03,13.53,34.16,31.52,34.16,50.66s-12.13,37.14-34.16,50.66c-22,13.51-51.26,20.95-82.37,20.95ZM168.47,127.23c-64.07,0-116.2,31.98-116.2,71.28s52.13,71.28,116.2,71.28,116.2-31.98,116.2-71.28-52.13-71.28-116.2-71.28Z"/>
  </g>
  <g>
    <ellipse class="st0" cx="73.09" cy="200.54" rx="19.96" ry="41.04"/>
    <path class="st2" d="M73.09,242.9c-11.94,0-21.28-18.61-21.28-42.36s9.35-42.36,21.28-42.36,21.28,18.61,21.28,42.36-9.35,42.36-21.28,42.36ZM73.09,160.83c-10.1,0-18.64,18.19-18.64,39.72s8.54,39.72,18.64,39.72,18.64-18.19,18.64-39.72-8.54-39.72-18.64-39.72Z"/>
  </g>
  <g>
    <ellipse class="st0" cx="264.88" cy="200.54" rx="19.96" ry="41.04"/>
    <path class="st2" d="M264.88,242.9c-11.94,0-21.28-18.61-21.28-42.36s9.35-42.36,21.28-42.36,21.28,18.61,21.28,42.36-9.35,42.36-21.28,42.36ZM264.88,160.83c-10.1,0-18.64,18.19-18.64,39.72s8.54,39.72,18.64,39.72,18.64-18.19,18.64-39.72-8.54-39.72-18.64-39.72Z"/>
  </g>
  <g>
    <ellipse class="st0" cx="168.5" cy="154.23" rx="63.68" ry="30.21"/>
    <path class="st2" d="M168.5,185.75c-35.84,0-65-14.14-65-31.53s29.16-31.53,65-31.53,65.01,14.14,65.01,31.53-29.16,31.53-65.01,31.53ZM168.5,125.34c-34.39,0-62.36,12.96-62.36,28.88s27.97,28.88,62.36,28.88,62.36-12.96,62.36-28.88-27.98-28.88-62.36-28.88Z"/>
  </g>
  <g>
    <rect class="st0" x="195.71" y="81.17" width="126.94" height="2.64" transform="translate(99.57 302.73) rotate(-71.72)"/>
    <g>
      <rect class="st0" x="275.81" y="19.53" width="6.54" height="5.39" rx="1.38" ry="1.38" transform="translate(17.06 -76.39) rotate(16.07)"/>
      <path class="st0" d="M280.24,25.45c-.18,0-.37-.03-.55-.08l-2.8-.81c-.51-.15-.93-.48-1.18-.95-.26-.47-.32-1-.17-1.51l.48-1.68c.3-1.05,1.41-1.66,2.45-1.36l2.79.81c.51.15.93.48,1.19.95.26.47.32,1,.17,1.51l-.49,1.68c-.15.51-.48.93-.95,1.18-.3.17-.63.25-.96.25ZM277.93,19.33c-.72,0-1.38.47-1.59,1.19l-.48,1.68c-.12.42-.07.87.14,1.26s.56.67.99.79l2.8.81c.42.12.87.07,1.26-.14.39-.21.67-.56.79-.99l.49-1.68c.12-.42.07-.87-.14-1.26s-.57-.67-.99-.79l-2.79-.81c-.15-.04-.31-.06-.46-.06Z"/>
    </g>
  </g>
  <g>
    <polygon class="st2" points="126.64 219.23 141.27 210.03 141.27 228.44 126.64 219.23"/>
    <rect class="st2" x="124.4" y="210.51" width="3.07" height="17.93"/>
    <polygon class="st2" points="177.33 219.47 160.46 229.59 160.46 209.36 177.33 219.47"/>
    <polygon class="st2" points="206.73 219.47 192.09 210.27 192.09 228.68 206.73 219.47"/>
    <rect class="st2" x="205.9" y="210.74" width="3.07" height="17.93" transform="translate(414.87 439.42) rotate(-180)"/>
  </g>
  <path class="st1" d="M174.29,108.94"/>
  <path class="st1" d="M209.9,126.32"/>
</svg>